<svg width="116" height="21" viewBox="0 0 116 21" fill="none" xmlns="http://www.w3.org/2000/svg">
<g clip-path="url(#clip0_6489_796)">
<path fill-rule="evenodd" clip-rule="evenodd" d="M45.5815 14.6148C46.0877 14.1261 46.3413 13.4926 46.3413 12.7148C46.3413 11.9375 46.0877 11.3041 45.5815 10.8147C45.0747 10.3258 44.4972 10.0812 43.8494 10.0812C43.1775 10.0812 42.5857 10.3228 42.0728 10.8063C41.56 11.2891 41.304 11.9255 41.304 12.7148C41.304 13.5046 41.56 14.1404 42.0728 14.6238C42.5857 15.1068 43.1775 15.3483 43.8494 15.3483C44.4972 15.3483 45.0747 15.1037 45.5815 14.6148ZM47.2151 9.38313C48.1404 10.2491 48.6028 11.3598 48.6028 12.7147C48.6028 14.0702 48.1404 15.1804 47.2151 16.0465C46.2903 16.9126 45.168 17.3456 43.8485 17.3456C42.505 17.3456 41.368 16.9126 40.4371 16.0465C39.5063 15.1804 39.0408 14.0702 39.0408 12.7147C39.0408 11.3598 39.5063 10.2491 40.4371 9.38313C41.368 8.51706 42.505 8.08398 43.8485 8.08398C45.168 8.08398 46.2903 8.51706 47.2151 9.38313Z" fill="black"/>
<path fill-rule="evenodd" clip-rule="evenodd" d="M56.0804 14.6145C56.5872 14.1256 56.8402 13.4923 56.8402 12.7144C56.8402 11.9371 56.5872 11.3007 56.0804 10.8059C55.5736 10.311 54.9906 10.0634 54.3307 10.0634C53.6118 10.0634 53.0198 10.305 52.5544 10.7879C52.089 11.2713 51.8562 11.9131 51.8562 12.7144C51.8562 13.5158 52.089 14.155 52.5544 14.6323C53.0198 15.1093 53.6118 15.3479 54.3307 15.3479C54.9906 15.3479 55.5736 15.1033 56.0804 14.6145ZM59.1729 17.1156H56.8397V16.4264C56.0505 17.0627 55.0782 17.3806 53.9237 17.3806C52.7572 17.3806 51.7436 16.9386 50.8836 16.0551C50.0234 15.1711 49.5934 14.0579 49.5934 12.7144C49.5934 11.3715 50.0264 10.2548 50.8926 9.36526C51.7585 8.47583 52.7691 8.03076 53.9237 8.03076C55.0902 8.03076 56.0625 8.35476 56.8397 9.00305V8.29598H59.1729V17.1156Z" fill="black"/>
<path fill-rule="evenodd" clip-rule="evenodd" d="M79.379 9.06524C80.0269 9.75446 80.3512 10.6469 80.3512 11.7431V17.116H78.0176V12.2379C78.0176 11.613 77.8562 11.1123 77.5319 10.7355C77.2083 10.3583 76.7755 10.1701 76.2333 10.1701C74.7719 10.1701 74.0412 11.183 74.0412 13.2097V17.116H71.7083V4.39014H74.0412V9.09167C74.7476 8.3846 75.6733 8.03124 76.8162 8.03124C77.8762 8.03124 78.7312 8.37603 79.379 9.06524Z" fill="black"/>
<path fill-rule="evenodd" clip-rule="evenodd" d="M93.0084 17.116H90.6048V11.8981H84.9491V17.116H82.5455V4.39014H84.9491V9.72396H90.6048V4.39014H93.0084V17.116Z" fill="black"/>
<path fill-rule="evenodd" clip-rule="evenodd" d="M103.828 17.116H101.494V16.3207C100.788 17.0278 99.8627 17.3811 98.7191 17.3811C97.6591 17.3811 96.8048 17.0362 96.157 16.3472C95.5084 15.658 95.1848 14.7654 95.1848 13.6697V8.29639H97.5177V13.1742C97.5177 13.7992 97.6798 14.3 98.0041 14.6767C98.3277 15.054 98.7605 15.2423 99.3027 15.2423C100.764 15.2423 101.494 14.2292 101.494 12.2026V8.29639H103.828V17.116Z" fill="black"/>
<path fill-rule="evenodd" clip-rule="evenodd" d="M112.853 14.633C113.318 14.1556 113.55 13.5163 113.55 12.715C113.55 11.9137 113.318 11.2719 112.853 10.7885C112.387 10.3057 111.795 10.064 111.076 10.064C110.416 10.064 109.833 10.3116 109.326 10.8065C108.82 11.3012 108.566 11.9377 108.566 12.715C108.566 13.4929 108.82 14.1262 109.326 14.6151C109.833 15.104 110.416 15.3486 111.076 15.3486C111.795 15.3486 112.387 15.11 112.853 14.633ZM114.514 9.36582C115.381 10.2552 115.813 11.372 115.813 12.715C115.813 14.0585 115.383 15.1715 114.523 16.0556C113.663 16.9392 112.65 17.3811 111.483 17.3811C110.328 17.3811 109.356 17.0632 108.567 16.4268V17.116H106.234V4.39014H108.567V9.0036C109.345 8.35532 110.317 8.03132 111.483 8.03132C112.638 8.03132 113.648 8.47624 114.514 9.36582Z" fill="black"/>
<mask id="mask0_6489_796" style="mask-type:alpha" maskUnits="userSpaceOnUse" x="0" y="1" width="10" height="20">
<path fill-rule="evenodd" clip-rule="evenodd" d="M0.812622 1.31299H9.75176V20.4582H0.812622V1.31299Z" fill="black"/>
</mask>
<g mask="url(#mask0_6489_796)">
<path fill-rule="evenodd" clip-rule="evenodd" d="M0.812622 10.8855C0.812622 15.9649 4.7587 20.1189 9.75176 20.4582V1.31299C4.7587 1.65231 0.812622 5.80632 0.812622 10.8855Z" fill="black"/>
</g>
<mask id="mask1_6489_796" style="mask-type:alpha" maskUnits="userSpaceOnUse" x="12" y="1" width="8" height="9">
<path fill-rule="evenodd" clip-rule="evenodd" d="M12.3249 1.31299H19.9641V9.43681H12.3249V1.31299Z" fill="black"/>
</mask>
<g mask="url(#mask1_6489_796)">
<path fill-rule="evenodd" clip-rule="evenodd" d="M12.3249 7.61414V1.31299C16.4105 2.13993 19.5546 5.23663 19.9641 9.43681L14.1065 9.40539C13.121 9.4001 12.3249 8.59967 12.3249 7.61414Z" fill="black"/>
</g>
<mask id="mask2_6489_796" style="mask-type:alpha" maskUnits="userSpaceOnUse" x="12" y="12" width="8" height="9">
<path fill-rule="evenodd" clip-rule="evenodd" d="M12.3249 12.3342H19.9641V20.458H12.3249V12.3342Z" fill="black"/>
</mask>
<g mask="url(#mask2_6489_796)">
<path fill-rule="evenodd" clip-rule="evenodd" d="M12.3249 14.1569V20.4581C16.4105 19.6312 19.5546 16.5344 19.9641 12.3342L14.1065 12.3657C13.121 12.3709 12.3249 13.1714 12.3249 14.1569Z" fill="black"/>
</g>
<path fill-rule="evenodd" clip-rule="evenodd" d="M35.3302 12.8717C35.0939 13.5077 34.7457 14.0095 34.2839 14.3754C33.6596 14.8702 32.9116 15.118 32.0396 15.118C30.9791 15.118 30.0807 14.7406 29.3442 13.9866C28.6078 13.2322 28.2394 12.2953 28.2394 11.1762C28.2394 10.0571 28.6048 9.12311 29.3352 8.37475C30.0657 7.62679 30.9673 7.25244 32.0396 7.25244C32.8996 7.25244 33.6446 7.49973 34.2755 7.99503C34.7393 8.35903 35.0888 8.85511 35.3262 9.48068H37.8543C37.5519 8.11203 36.8759 7.02338 35.8218 6.21853C34.7493 5.39975 33.4886 4.99023 32.0396 4.99023C30.2955 4.99023 28.8226 5.58812 27.621 6.78413C26.4191 7.98003 25.8182 9.44411 25.8182 11.1762C25.8182 12.9202 26.4191 14.3867 27.621 15.5772C28.8226 16.7672 30.2955 17.3622 32.0396 17.3622C33.5006 17.3622 34.7673 16.9441 35.8396 16.1075C36.8506 15.3185 37.5063 14.2375 37.8151 12.8717H35.3302Z" fill="black"/>
<path fill-rule="evenodd" clip-rule="evenodd" d="M67.5528 14.1633C67.1296 14.8666 66.4776 15.2234 65.5902 15.2234C64.8596 15.2234 64.2676 14.9907 63.8142 14.5254C63.3603 14.0599 63.1335 13.4506 63.1335 12.6959C63.1335 11.9421 63.3603 11.3291 63.8142 10.8583C64.2676 10.3869 64.8596 10.1512 65.5902 10.1512C66.4869 10.1512 67.1214 10.5076 67.4994 11.2113H69.9905C69.6922 10.2587 69.1486 9.48885 68.3564 8.90492C67.5489 8.30992 66.6272 8.01245 65.5902 8.01245C64.2707 8.01245 63.1539 8.45135 62.2411 9.32892C61.3276 10.207 60.8712 11.3291 60.8712 12.6959C60.8712 14.0629 61.3276 15.1826 62.2411 16.0542C63.1539 16.9261 64.2707 17.3622 65.5902 17.3622C66.6505 17.3622 67.5904 17.0618 68.4092 16.4607C69.1987 15.8816 69.7197 15.1145 69.9778 14.1633H67.5528Z" fill="black"/>
</g>
<defs>
<clipPath id="clip0_6489_796">
<rect width="115" height="20" fill="white" transform="translate(0.812622 0.885742)"/>
</clipPath>
</defs>
</svg>
